<?xml version="1.0" encoding="utf-8"?>
<!DOCTYPE svg PUBLIC "-//W3C//DTD SVG 20010904//EN" "http://www.w3.org/TR/2001/REC-SVG-20010904/DTD/svg10.dtd">
<svg version="1.0" xmlns="http://www.w3.org/2000/svg" width="1035px" height="1035px" viewBox="0 0 1035 1035" preserveAspectRatio="xMidYMid meet">
 <g fill="#000000">
  <path d="M26.8 1027.3 l14.2 -7.7 0 -16.9 0 -16.9 -2.2 1.4 c-4.2 2.7 -35.8 20.9 -37.3 21.4 l-1.5 0.6 0 -4.3 0.1 -4.4 19 -10.9 c10.5 -5.9 18.9 -10.9 18.7 -11.1 -0.2 -0.1 -6.3 -3.7 -13.7 -7.9 l-13.3 -7.6 -5.4 2.9 -5.4 2.9 0 -11.9 0 -11.9 0.6 0 c0.4 0 12.5 6.4 27 14.3 l26.4 14.2 0 30.8 0 30.7 -20.7 0 -20.8 0 14.3 -7.7z"/>
  <path d="M79.8 995.9 l-0.3 -39.1 -33.5 -19.4 c-18.4 -10.6 -36.3 -21 -39.8 -23 l-6.3 -3.6 0.3 -8.5 0.3 -8.5 20 -10.8 20 -10.8 0.3 -16.6 0.2 -16.6 -0.5 0 c-0.6 0 -28.2 15.7 -37.3 21.2 l-3.3 2 0.3 -4.7 0.3 -4.7 18.8 -10.8 18.8 -10.8 -1.3 -0.9 c-0.7 -0.4 -6.9 -4 -13.7 -7.9 l-12.5 -7.2 -5.3 3 -5.3 3 0 -12.2 0 -12.2 11.3 6 c6.1 3.4 18.2 9.8 26.7 14.5 l15.5 8.3 0.3 31.2 0.2 31.1 10.8 6.4 c5.9 3.6 11.7 7 13 7.6 l2.2 1.2 0 -46.9 0 -46.8 -39.7 -23 -39.8 -22.9 -0.3 -8.5 -0.3 -8.6 20.5 -10.9 20.5 -11 0.1 -16.8 0 -16.8 -2.2 1.2 c-1.3 0.7 -10.3 5.9 -20.2 11.6 -9.8 5.6 -18 10.3 -18.2 10.3 -0.2 0 -0.4 -1.9 -0.4 -4.3 l0 -4.3 17.7 -10.2 c9.8 -5.6 18.4 -10.6 19.2 -11.1 l1.3 -0.9 -13.8 -7.8 -13.8 -7.8 -4.9 2.8 c-2.7 1.5 -5.1 2.5 -5.3 2.3 -0.3 -0.2 -0.3 -5.6 -0.2 -11.9 l0.3 -11.5 26.7 14.4 26.8 14.5 0 31.2 0 31.1 12.4 7.3 c6.8 3.9 12.7 7.2 13 7.2 l0.6 0 0 -46.7 -0.1 -46.8 -39.9 -23 -40 -23 0 -8.5 0.1 -8.5 20.4 -10.9 20.5 -11 0 -16.9 0 -16.9 -3.2 2 c-1.8 1.1 -11.1 6.5 -20.5 12 l-17.3 10.1 0 -4.7 0 -4.7 17.3 -9.7 c9.5 -5.4 18.1 -10.4 19 -11 l1.7 -1.3 -13.8 -7.8 -13.7 -7.9 -1.5 0.9 c-0.8 0.5 -3.2 1.9 -5.3 3.2 l-3.7 2.3 0 -12.1 0 -12.1 0.6 0 c0.8 0 50.5 26.9 52.1 28.2 l1.3 1 0 30.7 0 30.7 12.8 7.6 12.7 7.6 0.3 -46.6 0.2 -46.6 -0.7 -0.7 c-0.5 -0.4 -15 -8.9 -32.3 -18.9 -17.3 -10 -35 -20.2 -39.3 -22.7 l-7.7 -4.5 0 -8.3 0 -8.4 20.2 -10.9 20.3 -11 0.3 -16.6 0.2 -16.6 -0.5 0 c-0.5 0 -7.7 4.1 -39.8 22.7 l-0.8 0.5 0.3 -4.7 0.3 -4.7 18.8 -10.8 18.8 -10.8 -1.3 -0.9 c-0.7 -0.4 -6.9 -4 -13.8 -7.9 l-12.5 -7.1 -5.2 2.9 -5.3 3 0 -12.2 0 -12.2 11.3 6 c6.1 3.3 18.2 9.8 26.7 14.5 l15.5 8.4 0.5 31.3 0.5 31.4 9 5.3 c5 3 10.7 6.3 12.8 7.4 l3.7 1.9 0 -46.8 0 -46.8 -23.3 -13.4 c-12.7 -7.3 -30 -17.3 -38.3 -22.2 -8.3 -4.8 -15.8 -9 -16.7 -9.4 l-1.7 -0.6 0 -8.7 0 -8.6 20.5 -11 20.4 -11 0.1 -16.8 0 -16.8 -1.8 1 c-1.1 0.6 -10.1 5.7 -20.1 11.6 -10 5.8 -18.4 10.5 -18.7 10.5 -0.2 0 -0.4 -1.9 -0.4 -4.3 l0 -4.3 19 -10.8 c10.4 -6 19 -11 19 -11.1 0 -0.2 -6.2 -3.8 -13.7 -8.1 l-13.7 -7.8 -4.9 2.8 c-2.7 1.5 -5.1 2.5 -5.3 2.3 -0.3 -0.2 -0.3 -5.6 -0.2 -11.9 l0.3 -11.5 26.8 14.5 26.7 14.5 0 31.1 0 31.1 12.3 7.3 c6.8 3.9 12.6 7.2 13 7.2 l0.7 0 0 -46.7 -0.1 -46.8 -40 -23 -40 -23 0.3 -8.4 0.3 -8.5 20.3 -11 20.2 -11.1 0 -16.7 0 -16.7 -12.3 7.1 c-6.7 3.9 -15.9 9.3 -20.5 11.9 l-8.3 4.9 0.3 -4.7 0.3 -4.8 18 -10.3 c9.9 -5.7 18.3 -10.6 18.7 -11 l0.7 -0.7 -13.7 -7.7 -13.6 -7.7 -5.3 2.9 -5.3 3 0 -12 0 -12 0.8 0 c0.4 0.1 12.4 6.5 26.7 14.3 l26 14.2 0.3 31.1 0.2 31.2 12.3 7.2 c6.7 4 12.5 7.5 13 7.7 l0.7 0.4 -0.2 -47.1 -0.3 -47.2 -39.5 -22.8 -39.5 -22.8 -0.3 -8.6 -0.3 -8.6 5.7 -2.7 5.6 -2.8 -5.8 -0.6 -5.9 -0.6 517 0.1 517 0.1 0 517 0.1 517 -0.6 -12.6 -0.5 -12.6 -19.1 11 -19.2 11.1 0.5 1.3 0.5 1.3 -5.6 0 -5.5 0 0.4 -1.3 0.5 -1.2 -19.7 -11.4 c-48.7 -28.2 -57.7 -33.3 -59 -33.8 l-1.3 -0.5 0.2 16.7 0.3 16.7 14 7.4 14 7.4 -20.7 0 -20.8 0 0 -30.8 0 -30.8 17.3 -9.4 c9.4 -5.1 21.4 -11.6 26.5 -14.3 l9.2 -5.1 0 -16.7 0 -16.7 -40 23.1 -40 23.1 0 38.8 0 38.8 -5 0 -5 0 -0.2 -39.1 -0.3 -39.1 -34 -19.7 c-18.7 -10.8 -36.6 -21.2 -39.7 -23 l-5.8 -3.2 0 16.8 0.1 16.8 26.9 14.5 27 14.5 0 30.8 0 30.7 -20.7 0 -20.8 0 14.3 -7.7 14.2 -7.7 0 -16.9 0 -16.9 -2.2 1.4 c-1.3 0.8 -19.3 11.3 -40 23.3 l-37.8 21.8 0 1.3 0 1.4 -5 0 -5 0 0 -1.4 0 -1.4 -3.7 -2.2 c-2.1 -1.2 -18.6 -10.8 -36.8 -21.3 -18.1 -10.4 -34.5 -19.8 -36.2 -20.9 l-3.3 -2 0 16.9 0 16.9 4.3 2.2 c2.3 1.2 8.9 4.6 14.6 7.7 l10.3 5.5 -20.6 0 -20.6 0 0 -30.9 0 -30.9 26.5 -14.4 26.5 -14.3 0 -16.8 0 -16.9 -3.2 2 c-1.8 1.1 -19.8 11.5 -40 23.2 l-36.8 21.2 0 38.9 0 38.9 -5 0 -5 0 -0.2 -39.1 -0.3 -39 -19.5 -11.3 c-40.2 -23.2 -53.6 -30.9 -56.7 -32.8 l-3.3 -2 0 16.9 0 16.9 26.3 14.1 26.2 14.1 0.3 31.1 0.2 31.1 -20.6 0 -20.6 0 10.3 -5.5 c5.7 -3.1 12.3 -6.5 14.7 -7.7 l4.2 -2.2 0 -16.8 0 -16.9 -2.1 1.2 c-1.2 0.6 -11.2 6.4 -22.3 12.8 -11 6.5 -28.1 16.3 -37.8 22 l-17.8 10.3 0 1.4 0 1.4 -5 0 -5 0 0 -1.4 0 -1.3 -21.7 -12.5 c-12 -6.9 -30 -17.3 -40 -23.1 l-18.3 -10.6 0 16.8 0 16.7 14.3 7.7 14.2 7.7 -20.7 0 -20.8 0 0 -30.8 0 -30.7 25.8 -13.9 c14.1 -7.6 26.3 -14.4 27 -15 l1.3 -1.2 -0.3 -16.2 -0.3 -16.2 -39.5 22.9 -39.5 22.8 -0.3 39.2 -0.2 39.1 -5 0 -5 0 0 -38.8 0 -38.8 -25.2 -14.6 c-13.9 -8 -31.9 -18.4 -40 -23.1 l-14.8 -8.6 0 16.8 0 16.9 23.3 12.5 c12.7 6.9 24.7 13.3 26.4 14.4 l3.3 1.8 0 30.8 0 30.7 -20.7 0 -20.8 0 3 -1.6 c1.7 -0.8 8.1 -4.2 14.3 -7.5 l11.2 -6 0 -16.6 0 -16.5 -1.5 0.6 c-0.8 0.3 -14.5 8 -30.3 17.2 -15.8 9.1 -33.1 19.1 -38.4 22.2 l-9.8 5.7 0 1.2 0 1.3 -5.6 0 -5.6 0 1 -1.3 1.1 -1.3 -39.3 -22.7 c-21.6 -12.5 -39.6 -22.7 -40 -22.7 l-0.6 0 0 16.4 0 16.5 11.8 6.2 c6.4 3.4 12.6 6.8 13.7 7.6 l1.9 1.3 -20.2 0 -20.2 0 0 -30.8 0 -30.9 26.5 -14.3 26.5 -14.3 0 -16.8 0 -16.8 -11.7 6.8 c-29 16.8 -58.2 33.7 -63 36.4 l-5.3 2.9 0 38.9 0 38.9 -5 0 -5 0 -0.2 -39.1z m438 4.1 l37.3 -21.3 -14 -7.9 -13.9 -7.9 -26.5 15 c-14.6 8.3 -26.8 15.1 -27.1 15.1 -0.4 0 -12.4 -6.8 -26.7 -15 l-26.1 -15.1 -12.7 6.7 c-6.9 3.6 -13.2 7.2 -13.9 7.9 l-1.3 1.2 24.8 14.5 c13.6 8 31.8 18.6 40.3 23.5 l15.4 9.1 3.6 -2.2 c1.9 -1.2 20.3 -11.8 40.8 -23.6z m236.2 12.8 c9.1 -5.3 25.7 -14.8 37 -21.3 11.3 -6.4 20.8 -12 21.3 -12.4 l0.7 -0.7 -13.6 -7.7 -13.7 -7.7 -8.6 4.8 c-4.7 2.6 -16.8 9.5 -26.9 15.1 l-18.2 10.4 -26.6 -15.2 -26.5 -15.2 -13.2 7.1 c-7.3 4 -13.5 7.5 -13.9 7.9 l-0.8 0.7 40.3 23.6 40.2 23.6 3 -1.8 c1.7 -1 10.4 -6 19.5 -11.2z m-499.3 -10 c21.4 -12.1 39.4 -22.6 40.1 -23.3 l1.3 -1.2 -13.6 -7.7 -13.5 -7.7 -24.3 13.7 c-13.3 7.5 -25.4 14.3 -26.8 15.2 l-2.7 1.5 -26.5 -15.2 -26.5 -15.2 -14.2 7.7 -14.2 7.7 1.4 0.8 c0.7 0.4 18.6 10.9 39.8 23.3 21.2 12.4 39.1 22.6 39.7 22.6 0.7 0 18.7 -10 40 -22.2z m757.3 10.2 l20.5 -11.8 0.3 -16.1 0.2 -16.1 -3.2 1.9 c-15.5 8.9 -39 22.1 -39.5 22.1 -0.3 0 -12.3 -6.8 -26.8 -15.1 l-26.2 -15.1 -14.2 7.8 -14.3 7.7 4.9 2.8 c2.6 1.5 20.6 12 39.8 23.3 l35 20.5 1.5 0 1.5 0 20.5 -11.9z m-802 -81.4 l-0.1 -45.3 -1.2 -1.5 c-0.7 -0.9 -17.8 -11.1 -38.2 -22.8 -20.3 -11.7 -37.4 -21.6 -37.9 -22.1 -0.6 -0.5 -1.4 -0.9 -1.8 -0.9 l-0.8 0 0.2 16.7 0.3 16.7 26 14.1 26 14 0.5 31.3 0.5 31.2 12.4 7.5 12.5 7.4 0.8 -0.5 0.8 -0.5 0 -45.3z m23.2 38.8 l12.8 -7.6 0.2 -31.2 0.3 -31.1 26 -14.1 26 -14.1 0.3 -16.6 c0.1 -9.2 0.1 -16.7 -0.2 -16.7 -0.2 0 -18.1 10.2 -39.7 22.8 l-39.4 22.7 -0.3 46.8 -0.2 46.7 0.7 0 c0.4 0 6.4 -3.4 13.5 -7.6z m234.8 -39.1 l0 -46.8 -20.3 -11.6 c-11.1 -6.4 -28.9 -16.7 -39.4 -22.8 -10.6 -6.1 -19.5 -11.1 -19.8 -11.1 l-0.5 0 0.2 16.6 0.3 16.6 26.2 14.1 26.3 14.2 0 31.1 0 31 12.8 7.7 c7 4.2 13 7.6 13.5 7.6 l0.7 0.1 0 -46.7z m23.2 39.3 l12.3 -7.3 0.5 -31.3 0.5 -31.4 26.8 -14.4 26.7 -14.4 0 -16.8 0 -16.8 -33.7 19.5 c-18.6 10.7 -36.6 21.1 -40 23.1 l-6.3 3.6 0 46.8 c0 25.7 0.2 46.8 0.4 46.8 0.2 0 6 -3.3 12.8 -7.4z m234.8 -39.4 l0 -46.7 -9.7 -5.7 c-5.4 -3.1 -23.4 -13.5 -40 -23.1 l-30.3 -17.5 0 16.8 0 16.7 26.8 14.5 26.7 14.5 0.5 31.4 0.5 31.3 12 7.2 c6.6 4 12.3 7.3 12.8 7.3 l0.7 0.1 0 -46.8z m24 39.1 l13 -7.6 0 -31.1 0 -31.1 26.3 -14.2 26.2 -14.1 0.3 -16.6 0.2 -16.6 -0.5 0 c-0.3 0 -9.2 5 -19.8 11.1 -10.5 6.1 -28.3 16.4 -39.4 22.8 l-20.3 11.6 0 46.8 0 46.7 0.5 0 c0.3 0 6.4 -3.5 13.5 -7.7z m234.8 -39 l-0.3 -46.7 -5 -2.9 c-14 -8.3 -73.9 -42.7 -74.2 -42.7 -0.2 0 -0.2 7.5 -0.1 16.7 l0.3 16.7 25 13.5 c13.8 7.5 25.6 14 26.3 14.4 l1.2 0.8 0 30.9 0 30.9 12.8 7.5 c7 4.2 13 7.6 13.5 7.6 l0.7 0 -0.2 -46.7z m24.2 38.7 l12 -7.1 0 -31.3 0 -31.2 6 -2.9 6 -2.9 0 -15.8 0 -15.8 -0.7 0 c-0.5 0.1 -9.1 4.9 -19.3 10.8 l-18.5 10.8 -0.2 46.8 -0.3 46.8 1.5 -0.6 c0.8 -0.3 6.9 -3.7 13.5 -7.6z m-879.5 -44.5 c19.8 -11.3 36.3 -21 36.7 -21.4 l0.8 -0.7 -13.6 -7.8 -13.6 -7.7 -24.6 13.9 c-13.6 7.7 -25.7 14.5 -27 15.1 l-2.4 1.3 -26.4 -15.2 -26.4 -15.1 -13.2 7.1 c-7.3 4 -13.6 7.5 -14 7.9 l-0.8 0.7 40.3 23.5 40.2 23.6 4 -2.3 c2.2 -1.2 20.2 -11.5 40 -22.9z m553.7 -21.4 l0.7 -0.6 -13.1 -7.5 c-7.2 -4.1 -13.5 -7.6 -13.8 -7.8 -0.4 -0.1 -11.9 6.1 -25.6 13.9 -13.6 7.8 -25.8 14.6 -26.9 15.1 l-2.1 0.9 -26.3 -15.1 -26.2 -15.1 -13.6 7.3 -13.6 7.3 0.3 1 0.4 1 39.5 23.1 39.5 23.1 40 -23 c22.1 -12.6 40.4 -23.2 40.8 -23.6z m-299.8 24 c20.9 -12 39.2 -22.4 40.5 -23.1 l2.3 -1.2 -14.1 -8 -14 -7.9 -26.6 15 c-14.6 8.3 -26.7 15.1 -27 15.1 -0.5 0 -45 -25.3 -51.5 -29.2 l-1.5 -1 -14.4 7.8 -14.3 7.7 2.3 1.3 c1.3 0.7 19.3 11.2 39.9 23.3 20.6 12.1 38.1 22 38.9 22.1 l1.3 0 38.2 -21.9z m517.8 -0.7 c21.6 -12.4 39.7 -22.9 40.1 -23.3 l0.8 -0.8 -13.7 -7.7 -13.6 -7.7 -25.2 14.2 c-13.8 7.8 -25.8 14.7 -26.7 15.2 l-1.7 1 -26.6 -15.2 -26.6 -15.2 -14.1 7.7 -14.1 7.7 1.3 0.8 c0.8 0.4 18.7 10.9 39.9 23.3 21.2 12.4 39 22.6 39.7 22.6 0.7 0 18.9 -10.1 40.5 -22.6z m-797.2 -32 l13 -7.6 0 -31.2 0.1 -31.1 26.2 -14.1 26.2 -14.1 0.3 -16.8 0.2 -16.7 -0.9 0.4 c-0.5 0.1 -18.5 10.4 -40 22.8 l-39 22.5 -0.1 46.8 0 46.7 0.5 0 c0.3 0 6.4 -3.4 13.5 -7.6z m235 -39.1 l-0.1 -46.8 -11.7 -6.6 c-6.4 -3.7 -24.2 -13.9 -39.6 -22.8 -15.3 -8.9 -28 -16.1 -28.2 -16.1 -0.3 0 -0.3 7.5 -0.2 16.7 l0.3 16.6 26.2 14.1 26.3 14.1 0 31.1 0 31.2 12.8 7.6 c7 4.1 13 7.5 13.5 7.6 l0.7 0 0 -46.7z m25.2 38 l10.8 -6.4 0.2 -31.1 0.3 -31.2 26.8 -14.5 26.7 -14.4 0 -16.5 0 -16.4 -1.6 0.6 c-0.9 0.4 -18.9 10.6 -40 22.8 l-38.4 22.1 0 46.9 0 46.9 2.3 -1.2 c1.2 -0.7 7 -4.1 12.9 -7.6z m232.8 -38 l0 -46.8 -39.4 -22.7 c-21.6 -12.6 -39.6 -22.8 -40 -22.8 l-0.6 0 0 16.4 0 16.4 6.3 3.4 c3.4 1.9 15.3 8.3 26.4 14.4 l20.3 10.9 0 31 0 31.1 12.8 7.6 c7 4.2 13 7.7 13.5 7.7 l0.7 0.1 0 -46.7z m24 39 l13 -7.7 0 -31.1 0 -31 26.3 -14.2 26.2 -14.2 0.3 -16.5 0.2 -16.6 -0.5 0 c-0.4 0 -18.4 10.2 -40.1 22.8 l-39.4 22.7 0 46.8 c0 25.7 0.2 46.7 0.5 46.7 0.2 0 6.3 -3.5 13.5 -7.7z m234 -39.1 l0 -46.9 -38.3 -22.1 c-21 -12.1 -39 -22.4 -40 -22.7 l-1.7 -0.7 0 16.4 0 16.4 18.3 9.9 c10 5.4 22 12 26.7 14.5 l8.5 4.7 0.3 31.1 0.2 31.2 12.8 7.5 c7 4.1 12.8 7.5 13 7.5 0.1 0 0.2 -21.1 0.2 -46.8z m24 39.2 l13 -7.6 0 -31.2 0 -31.1 26.3 -14.1 26.2 -14.1 0.3 -16.7 0.2 -16.8 -0.8 0.4 c-0.5 0.1 -18.5 10.4 -40 22.8 l-39.1 22.5 -0.1 46.8 0 46.7 0.5 0 c0.3 0 6.4 -3.4 13.5 -7.6z m-623.1 -40.9 c22 -12.6 40.1 -23.2 40.1 -23.5 0 -0.3 -6.1 -3.9 -13.6 -8.1 l-13.6 -7.6 -26.1 14.8 c-14.4 8.2 -26.8 14.9 -27.4 14.9 -0.7 0 -12.9 -6.7 -27.1 -14.9 l-25.9 -14.8 -14.1 7.6 c-7.7 4.1 -13.9 7.8 -13.6 8 1.2 1.2 80 47 80.5 46.8 0.4 -0.1 18.7 -10.5 40.8 -23.2z m257.7 0.4 c22.2 -12.8 40.4 -23.5 40.4 -23.8 0 -0.9 -26.1 -15.7 -27.1 -15.4 -0.5 0.2 -12.4 6.8 -26.5 14.8 -14.2 8 -26.2 14.5 -26.8 14.5 -0.7 0 -12.8 -6.7 -27 -14.9 l-25.9 -14.9 -7.6 4.1 c-4.2 2.3 -10.6 5.7 -14.3 7.7 l-6.7 3.6 40.2 23.6 c22.1 13 40.4 23.7 40.6 23.7 0.2 0.1 18.5 -10.3 40.7 -23z m265.2 -3.9 c18.8 -10.7 34.1 -19.7 34.1 -20 0 -0.7 -26.9 -15.5 -27.8 -15.3 -0.4 0.1 -5 2.6 -10.2 5.6 -5.2 2.9 -16.8 9.5 -25.7 14.6 l-16.4 9.3 -1.6 -0.4 c-1 -0.3 -13.1 -7 -27 -15 l-25.2 -14.6 -14 7.6 -14 7.6 0.7 0.7 c0.5 0.4 18.6 11.1 40.3 23.8 l39.4 23 6.7 -3.7 c3.6 -2 22 -12.5 40.7 -23.2z m233.1 14.5 l21 -12 0.1 -15.7 c0 -8.7 -0.2 -15.8 -0.5 -15.8 -0.3 0 -9.9 5.3 -21.4 11.9 l-20.9 11.8 -19.8 -11.4 c-11 -6.3 -22.8 -13.2 -26.4 -15.3 l-6.5 -3.8 -10.5 5.6 c-5.8 3.1 -12.2 6.6 -14.3 7.8 l-3.8 2.1 40.3 23.6 c22.2 13 40.6 23.5 40.9 23.4 0.4 -0.1 10.2 -5.6 21.8 -12.2z m-802.2 -81.6 l-0.2 -47 -13.5 -7.8 c-7.4 -4.3 -23.8 -13.8 -36.5 -21.1 -12.6 -7.2 -24.5 -14.1 -26.2 -15.2 l-3.3 -2 0 16.9 0 16.8 26.3 14.2 26.2 14.2 0.3 31.3 0.3 31.3 13.2 7.7 c7.3 4.3 13.3 7.8 13.4 7.8 0.1 0 0.1 -21.2 0 -47.1z m27.3 36.6 l8.5 -5.1 0.5 -31.3 0.5 -31.2 26.2 -14.2 26.3 -14.2 0 -16.8 0 -16.9 -3.2 2 c-1.8 1.1 -19.8 11.5 -40 23.2 l-36.8 21.2 0 46.9 0 47 4.8 -2.8 c2.6 -1.5 8.5 -5 13.2 -7.8z m230.3 -83.6 c-0.7 -0.7 -71.7 -41.9 -77.5 -45 l-1.8 -1 0 16.8 0 16.8 19.3 10.3 c10.5 5.6 22.5 12 26.5 14.2 l7.2 4.1 0 30.9 0 30.9 13.3 7.9 13.2 7.9 0.3 -46.5 0.2 -46.6 -0.7 -0.7z m284.4 84.7 l11.3 -6.7 0.2 -31.1 0.3 -31.1 26.2 -14.1 26.2 -14.1 0.1 -16.8 0 -16.8 -5.7 3.2 c-3.2 1.8 -21.1 12.2 -39.8 23 l-34 19.6 -0.3 47.2 -0.2 47.2 2.2 -1.4 c1.3 -0.8 7.4 -4.4 13.5 -8.1z m233.3 -37.5 l0 -46.9 -36.7 -21.2 c-20.3 -11.7 -38.3 -22.1 -40 -23.2 l-3.3 -2 0 16.9 0 16.8 10.2 5.5 c20.8 11.2 25.5 13.7 34.1 18.4 l8.7 4.8 0 31.1 0.1 31.2 13.2 7.7 c7.3 4.2 13.3 7.7 13.5 7.8 0.1 0 0.2 -21.1 0.2 -46.9z m-493.3 38.7 l12.3 -7.3 0 -31.1 0 -31.1 26.8 -14.5 26.7 -14.5 0.3 -16.7 0.2 -16.8 -0.8 0.4 c-0.5 0.1 -18.5 10.4 -40 22.8 l-39.1 22.5 -0.1 46.8 0 46.7 0.7 0 c0.4 0 6.2 -3.3 13 -7.2z m234.1 -39.5 l-0.3 -46.8 -39.3 -22.7 c-21.7 -12.6 -39.6 -22.8 -39.8 -22.8 -0.3 0 -0.3 7.5 -0.2 16.7 l0.3 16.6 26.8 14.6 26.7 14.5 0 31 0 31.1 12.3 7.2 c6.7 4 12.5 7.2 13 7.3 l0.7 0 -0.2 -46.7z m282.7 39.3 l12 -7.2 0.3 -31.1 0.2 -31.2 6 -3.2 6 -3.2 0 -15.9 0 -15.9 -2.7 1.5 c-1.6 0.8 -10.2 5.7 -19.3 11 l-16.5 9.5 -0.3 46.5 -0.2 46.6 1.2 -0.1 c0.7 0 6.7 -3.3 13.3 -7.3z m-900.9 -32.2 c12.1 -6.9 30.3 -17.4 40.6 -23.2 10.3 -5.9 18.8 -10.9 18.8 -11.2 0 -0.7 -27 -15.5 -27.8 -15.3 -0.4 0.1 -11.9 6.6 -25.7 14.4 -13.7 7.8 -25.7 14.4 -26.6 14.6 l-1.7 0.5 -26 -15 -26 -14.9 -14.1 7.5 -14.1 7.6 0.8 0.7 c0.4 0.4 6.1 3.9 12.7 7.7 6.6 3.8 24.4 14.2 39.5 23.1 15.1 8.8 27.6 16.1 27.6 16.1 0.1 0 10 -5.7 22 -12.6z m276.9 -10.6 c22.3 -12.8 40.5 -23.5 40.5 -23.8 0 -0.3 -6.1 -3.9 -13.5 -8.1 l-13.4 -7.6 -26.3 14.9 c-14.5 8.3 -26.7 15 -27.3 15.1 -0.5 0 -12.7 -6.8 -27 -15.1 l-26 -15 -8.5 4.6 c-4.7 2.5 -11.1 6 -14.3 7.7 l-5.7 3.2 40.2 23.6 c22.2 12.9 40.4 23.6 40.6 23.6 0.2 0.1 18.5 -10.4 40.7 -23.1z m262.3 -2.2 c19.9 -11.4 36.2 -21.1 36.2 -21.5 0 -1 -26 -15.7 -27.1 -15.3 -0.5 0.1 -12.4 6.7 -26.4 14.7 -14.1 8 -26.1 14.5 -26.8 14.5 -0.6 0 -12.8 -6.7 -27 -14.9 l-25.8 -14.8 -14 7.5 -14 7.5 0.8 0.8 c0.5 0.5 18.6 11.2 40.3 23.9 l39.4 23 4 -2.3 c2.3 -1.3 20.4 -11.7 40.4 -23.1z m246.4 6.8 c17.7 -10.3 36 -20.7 40.5 -23.3 4.6 -2.5 8.3 -4.8 8.3 -5.1 -0.1 -0.5 -24.6 -14.6 -26.6 -15.2 l-1 -0.3 -26.1 14.8 c-14.3 8.1 -26.6 14.7 -27.2 14.7 -0.7 0 -12.8 -6.7 -27 -14.9 l-25.9 -14.9 -14.1 7.6 -14.1 7.6 0.6 0.5 c0.4 0.5 79.6 47 80.1 47.1 0 0 14.7 -8.4 32.5 -18.6z m-781 -41.6 l4.8 -3 0.2 -31 0.3 -31 26.2 -14.2 26.2 -14.1 0.1 -16.8 0 -16.8 -1.7 1 c-1 0.5 -18.9 10.8 -39.8 22.9 l-38 22 -0.3 47.1 -0.2 47.1 8.7 -5.1 c4.9 -2.8 10.9 -6.5 13.5 -8.1z m226.1 -80.9 c-0.5 -0.4 -18.1 -10.7 -39.3 -22.9 -21.2 -12.2 -38.8 -22.4 -39.2 -22.7 l-0.8 -0.4 0 16.8 0 16.8 26.3 14.2 26.2 14.1 0.5 31.3 0.5 31.3 13 7.7 13 7.7 0.3 -46.6 0.2 -46.6 -0.7 -0.7z m256.6 -0.9 c-1.2 -0.8 -19.1 -11.3 -39.8 -23.3 l-37.6 -21.7 -0.3 16.2 -0.3 16.1 1 1 c0.5 0.5 12.3 7.1 26.3 14.6 l25.3 13.7 0.5 31.3 0.5 31.3 13 7.7 13 7.7 0.3 -46.6 0.2 -46.5 -2.1 -1.5z m39.1 47.9 l0.5 -31.3 26 -14 26 -14.1 0.3 -16.8 c0.1 -9.2 0.1 -16.7 -0.1 -16.7 -0.2 0 -18.1 10.3 -39.8 22.8 l-39.4 22.8 -0.3 47.2 -0.2 47.1 13.2 -7.9 13.3 -7.8 0.5 -31.3z m247.5 37.4 l10 -5.9 0.5 -31.3 0.5 -31.3 26.2 -14.2 26.3 -14.1 0 -16.8 0 -16.8 -4.7 2.7 c-4.9 2.8 -9.7 5.6 -51.5 29.8 l-23.8 13.8 0 47 0 47 3.3 -2 c1.7 -1.1 7.7 -4.7 13.2 -7.9z m-519 1.5 l12.4 -7.3 0.3 -31.3 0.3 -31.3 26.5 -14.3 26.5 -14.3 0.3 -16.6 c0.1 -9.2 0 -16.7 -0.3 -16.7 -0.2 0 -10 5.5 -21.7 12.3 -11.7 6.8 -29.5 17 -39.5 22.8 l-18.3 10.4 0 46.8 0 46.7 0.5 0 c0.3 0 6.2 -3.3 13 -7.2z m492.5 -39.5 l-0.1 -46.8 -12.2 -6.9 c-12 -6.9 -29 -16.7 -53.9 -31.2 -7 -4.1 -13 -7.4 -13.3 -7.4 l-0.5 0 0.2 16.6 0.3 16.7 26.8 14.4 26.7 14.5 0 31.2 0 31.1 12.3 7.2 c6.7 4 12.5 7.2 13 7.2 l0.7 0.1 0 -46.7z m-618.5 9.6 c11.6 -6.6 29.7 -17 40.3 -23.1 l19.4 -11 -0.9 -0.8 c-1.4 -1.4 -25.6 -15 -26.6 -15 -0.5 0 -3.5 1.5 -6.6 3.4 -3.1 1.8 -14.9 8.6 -26.2 15 l-20.7 11.6 -26.1 -15 c-14.3 -8.2 -26.4 -15 -26.8 -15 -1.3 0 -27.3 14.3 -27.3 15 0 0.5 9.3 6.2 20.8 12.9 11.4 6.6 29 17 39.2 23 10.2 6 19 11 19.5 11 0.6 0.1 10.5 -5.3 22 -12z m277.8 -11 c22.1 -12.8 40.3 -23.3 40.5 -23.4 0.1 -0.1 -5.9 -3.7 -13.4 -7.9 l-13.7 -7.7 -1.5 0.6 c-0.9 0.3 -12.8 6.9 -26.5 14.7 -13.7 7.8 -25.4 14.1 -26.1 14.1 -0.6 0 -12.3 -6.4 -25.9 -14.2 -13.7 -7.8 -25.5 -14.5 -26.2 -14.8 l-1.4 -0.5 -13.6 7.3 c-7.4 4 -13.5 7.6 -13.5 7.9 0 0.6 79.1 47 80.3 47 0.4 0 18.8 -10.4 41 -23.1z m256.5 1 c21.3 -12.2 39.5 -22.8 40.5 -23.4 l1.9 -1.3 -13.5 -7.6 c-7.4 -4.2 -13.8 -7.6 -14.2 -7.6 -0.4 0 -12.6 6.8 -27.1 15 l-26.5 15 -26.1 -15 -26.1 -15.1 -1.2 0.3 c-1.9 0.5 -27.5 14.3 -27.5 14.8 0 0.3 3.9 2.7 8.8 5.5 4.8 2.7 22.7 13.2 39.7 23.2 17.1 10 31.4 18.2 31.8 18.2 0.5 0.1 18.3 -9.9 39.5 -22z m241 9.9 l21.2 -12.2 0 -15.9 0 -15.8 -0.7 0.4 c-0.5 0.2 -10.1 5.7 -21.4 12.1 l-20.6 11.6 -25.4 -14.6 c-14 -8 -25.9 -14.8 -26.6 -15.1 l-1.2 -0.5 -13.6 7.3 -13.6 7.2 0.3 0.8 c0.3 1 77.8 46.7 79.3 46.8 0.6 0.1 10.6 -5.4 22.3 -12.1z m-801.9 -81.5 l0.1 -46.6 -6.3 -3.7 c-18.3 -10.8 -72.6 -42 -73.1 -42 l-0.6 0 0.2 16.6 0.3 16.5 26.2 14.2 26.3 14.2 0 31 0 31.1 12.8 7.6 c7 4.2 13 7.7 13.4 7.7 l0.7 0.1 0 -46.7z m23.4 38.7 l12.7 -7.4 0 -31.1 0 -31 26.5 -14.4 26.5 -14.3 0 -16.4 0 -16.4 -0.6 0 c-0.3 0 -18.3 10.2 -40 22.7 l-39.4 22.8 0 46.8 0 46.9 0.8 -0.4 c0.4 -0.1 6.5 -3.7 13.5 -7.8z m234.7 -38.9 l0 -46.8 -21.7 -12.5 c-12 -6.9 -30 -17.3 -40 -23.1 l-18.3 -10.6 0 16.8 0 16.7 26.5 14.4 26.5 14.3 0 31.1 0 31.1 13.3 7.7 c7.2 4.3 13.3 7.8 13.5 7.8 0.1 0 0.2 -21.1 0.2 -46.9z m25.3 38 l10.7 -6.3 0 -30.9 0 -30.9 2.9 -1.8 c1.6 -0.9 13.7 -7.5 27 -14.7 l24.1 -13 0 -16.8 0 -16.8 -4.2 2.5 c-2.4 1.4 -20.3 11.7 -39.8 22.9 l-35.5 20.5 -0.3 47.2 -0.2 47.2 2.2 -1.4 c1.3 -0.8 7.1 -4.3 13.1 -7.7z m232.7 -38 l0 -46.9 -7.7 -4.5 c-4.3 -2.5 -20.6 -11.9 -36.3 -21 -15.7 -9 -30.2 -17.4 -32.2 -18.7 l-3.8 -2.2 0 16.9 0 16.8 24.1 13 c13.3 7.2 25.4 13.8 27 14.7 l2.9 1.8 0 30.9 0 30.9 12.8 7.6 c7 4.1 12.8 7.5 13 7.6 0.1 0 0.2 -21.1 0.2 -46.9z m26.7 37.3 l10.3 -5.9 0 -31.1 0 -31.1 22.3 -12.1 c12.2 -6.6 24.1 -13.1 26.4 -14.4 l4.3 -2.3 0 -16.7 0 -16.7 -18.2 10.6 c-10.1 5.8 -28.1 16.2 -40 23.1 l-21.8 12.5 0 46.9 0 47 3.3 -1.9 c1.7 -1.1 7.8 -4.6 13.4 -7.9z m232.3 -37.1 l0 -46.8 -2.8 -1.6 c-1.5 -0.8 -19.2 -11.1 -39.4 -22.7 -20.1 -11.7 -36.9 -21.2 -37.2 -21.2 l-0.6 0 0 16.4 0 16.4 26.5 14.3 26.5 14.3 0 31.1 0 31 12.8 7.7 c7 4.2 13 7.7 13.5 7.7 l0.7 0.1 0 -46.7z m23.3 38.8 l12.7 -7.5 0 -31 0 -31.1 6 -3.3 6 -3.3 0 -16 0 -16 -4.2 2.5 c-2.4 1.4 -11.2 6.5 -19.5 11.3 l-15.3 8.8 0 46.8 0 46.9 0.8 -0.4 c0.5 -0.1 6.6 -3.6 13.5 -7.7z m-882.4 -42.8 c21.8 -12.4 40 -22.9 40.4 -23.3 l0.9 -0.8 -13.4 -7.6 c-7.4 -4.2 -13.7 -7.6 -14.1 -7.6 -0.4 0 -12.6 6.8 -27.2 15 l-26.4 15.1 -26.3 -15.2 -26.3 -15.2 -14.2 7.4 c-7.9 4.1 -14.3 7.6 -14.3 7.9 0 0.3 3 2.2 6.8 4.2 3.7 2.1 21.6 12.5 39.7 23.2 18.2 10.7 33.4 19.5 33.9 19.5 0.5 0.1 18.7 -10.1 40.5 -22.6z m257.7 0.4 c21.4 -12.3 39.7 -22.8 40.7 -23.3 l1.7 -1 -13.6 -7.7 c-7.4 -4.2 -13.9 -7.7 -14.4 -7.7 -0.4 0 -11.5 6.1 -24.6 13.6 -13.2 7.5 -25.1 14.2 -26.5 15 l-2.7 1.3 -25.3 -14.6 c-14 -8 -25.9 -14.8 -26.6 -15 l-1.2 -0.5 -13.5 7.3 c-7.5 4 -13.6 7.5 -13.6 7.9 0 0.4 6.6 4.6 14.8 9.3 8.1 4.7 25.9 15.1 39.6 23.1 13.7 8 25.2 14.6 25.6 14.6 0.3 0 18.1 -10 39.6 -22.3z m259.7 -0.8 c22.1 -12.7 40.3 -23.2 40.5 -23.4 0.1 -0.1 -5.9 -3.7 -13.4 -8 l-13.6 -7.7 -2.1 1 c-1.2 0.5 -13.4 7.3 -27.1 15.1 l-24.9 14.1 -25.1 -14.4 c-13.8 -8 -25.8 -14.8 -26.7 -15.1 l-1.7 -0.6 -13.6 7.3 c-7.4 4 -13.6 7.5 -13.6 7.8 0 0.3 3.7 2.6 8.3 5.2 4.5 2.6 22.4 13.1 39.7 23.3 17.3 10.1 31.8 18.5 32.3 18.5 0.4 0 18.8 -10.4 41 -23.1z m222.2 20.8 c2.2 -1.3 20 -11.5 39.5 -22.7 19.5 -11.1 35.9 -20.6 36.3 -21 l0.8 -0.7 -6.8 -4 c-3.7 -2.2 -10 -5.7 -13.8 -7.8 l-7 -3.8 -26.7 15.2 -26.7 15.2 -16.3 -9.4 c-9 -5.2 -20.8 -12 -26.3 -15.2 l-10 -5.8 -13.5 7.1 -13.5 7.1 0 1.1 0 1.1 39 22.9 c21.5 12.5 39.5 22.9 40 22.9 0.6 0 2.8 -1 5 -2.2z m-757.8 -54.7 l9.3 -5.5 0 -31.1 0 -31.1 26.5 -14.3 26.5 -14.2 0 -16.9 0 -16.8 -14.2 8.3 c-7.9 4.5 -25.9 14.9 -40 23.1 l-25.8 14.9 0 46.9 0 46.9 4.3 -2.4 c2.3 -1.3 8.4 -4.9 13.4 -7.8z m231.3 -36.8 l0 -46.8 -23.2 -13.4 c-12.8 -7.4 -30.8 -17.8 -40 -23.1 l-16.8 -9.7 0 16.8 0 16.8 26.5 14.3 26.5 14.3 0 31 0 31.1 12.8 7.7 c7 4.2 13 7.7 13.5 7.7 l0.7 0.1 0 -46.8z m25.3 37.8 l10.7 -6.3 0 -31.1 0 -31.1 27 -14.5 27 -14.5 0 -16.8 0 -16.8 -0.7 0.4 c-1.5 0.8 -42 24.2 -60.3 34.8 l-18.5 10.7 -0.3 47.2 -0.2 47.2 2.2 -1.4 c1.3 -0.8 7.1 -4.3 13.1 -7.8z m232.7 -37.9 l0 -46.9 -15.2 -8.8 c-34.3 -19.8 -58.5 -33.7 -61.5 -35.6 l-3.3 -2 0 16.9 0 16.8 4.3 2.3 c2.3 1.3 14.2 7.8 26.5 14.4 l22.2 12 0 31.2 0.1 31.1 13.2 7.7 c7.3 4.2 13.3 7.7 13.5 7.8 0.1 0 0.2 -21.1 0.2 -46.9z m28.2 36.4 l8.7 -5 0.1 -31.1 0 -31.2 26.5 -14.3 26.5 -14.3 0 -16.9 0 -16.9 -3.2 2 c-5.1 3 -24.8 14.5 -52 30.2 l-24.8 14.2 0 46.9 0 46.9 4.8 -2.7 c2.6 -1.6 8.7 -5 13.4 -7.8z m229.1 -83.6 c-0.5 -0.4 -18.1 -10.7 -39.3 -22.9 -21.2 -12.2 -38.8 -22.4 -39.2 -22.7 l-0.8 -0.4 0 16.8 0 16.8 27 14.5 27 14.5 0 31.1 0 31 12.8 7.6 12.7 7.6 0.3 -46.6 0.2 -46.6 -0.7 -0.7z m25 86.1 l12.7 -7.5 0 -31 0 -31.1 26.5 -14.3 26.5 -14.3 0 -16.4 0 -16.4 -0.6 0 c-0.4 0 -18.4 10.2 -40 22.7 l-39.4 22.7 0 46.9 0 46.9 0.8 -0.4 c0.4 -0.1 6.5 -3.7 13.5 -7.8z m-620.8 -42.3 l37 -21.3 -0.3 -0.9 c-0.2 -0.6 -6.2 -4.3 -13.4 -8.2 l-12.9 -7.3 -26.7 15.1 -26.6 15.1 -2.1 -1 c-1.2 -0.6 -11.4 -6.3 -22.6 -12.8 -11.2 -6.5 -22.3 -12.8 -24.5 -14.1 l-4.1 -2.3 -14.3 7.7 -14.2 7.6 2.4 1.4 c1.2 0.8 19.4 11.5 40.3 23.7 l38 22.3 3.5 -1.9 c1.9 -1 20.2 -11.4 40.5 -23.1z m294.9 -20.9 l1.8 -1 -14 -7.9 -14 -8 -25.7 14.6 c-14.1 8 -26.2 14.8 -27 15.1 l-1.3 0.6 -26.3 -15.1 -26.2 -15.1 -14.3 7.7 -14.3 7.6 19.7 11.5 c10.8 6.4 29.1 17 40.5 23.7 l20.9 12.2 39.1 -22.4 c21.6 -12.4 40 -22.9 41.1 -23.5z m218.6 22.7 c21.7 -12.5 39.8 -23 40.2 -23.3 l0.7 -0.7 -13.6 -7.8 -13.6 -7.7 -9.6 5.4 c-5.3 2.9 -16.5 9.3 -25 14.1 -8.4 4.7 -16.3 9.1 -17.5 9.6 l-2.1 1 -26.3 -15.1 -26.3 -15.1 -13.2 7.2 c-7.3 3.9 -13.5 7.4 -14 7.8 l-0.7 0.7 17.7 10.4 c9.8 5.7 21.4 12.5 25.8 15 4.4 2.6 14.5 8.6 22.5 13.3 8 4.7 14.7 8.4 15 8.2 0.3 -0.2 18.3 -10.5 40 -23z m240 10.6 l20.5 -11.9 0.3 -16 0.2 -16.1 -21 12 c-11.5 6.5 -21.3 11.9 -21.6 11.9 -0.4 0 -12.5 -6.7 -26.8 -15 l-26.2 -15 -14.3 7.6 -14.3 7.7 1.3 0.8 c0.8 0.4 18.7 10.9 39.9 23.3 l38.5 22.6 1.5 0 1.5 0 20.5 -11.9z m-802.3 -81.8 l-0.2 -46.7 -39.5 -22.8 -39.5 -22.8 -0.3 16.2 -0.3 16.1 1 1 c0.6 0.6 12.4 7.1 26.3 14.6 l25.3 13.6 0.3 31.2 0.2 31.2 12.8 7.5 c7 4.2 13 7.6 13.4 7.6 l0.7 0 -0.2 -46.7z m24.3 38.7 l12 -7.1 0.2 -31.2 0.3 -31.1 26 -14.1 26 -14.1 0.3 -16.8 0.2 -16.8 -0.8 0.4 c-0.8 0.3 -54.9 31.5 -70.7 40.8 l-8 4.7 -0.3 46.7 -0.2 46.8 1.5 -0.6 c0.8 -0.3 6.9 -3.7 13.5 -7.6z m234 -38.7 l-0.1 -46.8 -14.2 -8.1 c-7.8 -4.5 -25.6 -14.8 -39.5 -22.8 -13.9 -8 -25.5 -14.6 -25.8 -14.6 -0.2 0 -0.3 7.5 -0.2 16.6 l0.3 16.6 26.2 14.2 26.2 14.1 0.1 31.1 0 31.1 12.8 7.6 c7 4.2 13 7.6 13.5 7.6 l0.7 0.1 0 -46.7z m23.2 39.3 l12.3 -7.3 0.5 -31.2 0.5 -31.2 16 -8.8 c8.8 -4.8 20.8 -11.3 26.8 -14.5 l10.7 -5.7 0 -16.6 0 -16.5 -1.5 0.6 c-0.8 0.3 -14.4 8 -30.2 17.2 -15.9 9.1 -33.2 19.1 -38.5 22.2 l-9.8 5.7 0 46.7 c0 25.8 0.2 46.8 0.4 46.8 0.2 0 6 -3.3 12.8 -7.4z m234.8 -39.4 l0 -46.7 -39.4 -22.8 c-21.6 -12.5 -39.6 -22.7 -40 -22.7 l-0.6 0 0 16.4 0 16.4 26.8 14.5 26.7 14.5 0.5 31.2 0.5 31.3 12 7.3 c6.6 4 12.3 7.3 12.8 7.3 l0.7 0.1 0 -46.8z m24.1 39.2 l12.9 -7.7 0 -31.1 0.1 -31.1 26.2 -14.1 26.2 -14.1 0.3 -16.8 0.2 -16.7 -0.8 0.4 c-0.5 0.1 -18.5 10.4 -40 22.8 l-39.1 22.5 -0.1 46.8 0 46.7 0.6 0 c0.3 0 6.3 -3.4 13.5 -7.6z m234.7 -39.1 l-0.3 -46.7 -8 -4.7 c-19.3 -11.2 -67.2 -38.7 -69.3 -39.8 l-2.2 -1.2 0.2 16.8 0.3 16.7 26 14.1 26 14.1 0.5 31.3 0.5 31.4 12.5 7.3 c6.9 4 12.8 7.3 13.3 7.4 l0.7 0 -0.2 -46.7z m23.9 38.8 l12.3 -7.2 0.2 -31.1 0.3 -31.1 5.7 -3.1 5.8 -3.1 0 -15.7 0 -15.8 -0.5 0 c-1.3 0 -36.1 20.5 -37.3 21.9 l-1.2 1.5 0.1 45 c0 24.8 0.3 45.4 0.6 45.9 0.2 0.4 0.7 0.6 1.1 0.4 0.4 -0.3 6.2 -3.7 12.9 -7.6z m-880.8 -43.6 c19.6 -11.2 36.4 -21 37.4 -21.7 l1.8 -1.4 -13.7 -7.7 -13.7 -7.7 -13.6 7.7 c-7.5 4.2 -19.4 11 -26.5 15 l-12.9 7.4 -1.2 -0.3 c-0.6 -0.2 -12.6 -7 -26.7 -15.1 l-25.7 -14.8 -14.1 7.7 -14.2 7.7 1.4 0.8 c0.7 0.5 18.9 11.1 40.3 23.8 l39 22.9 3.4 -2 c1.8 -1 19.4 -11.1 39 -22.3z m520.1 -1.9 c19 -10.9 34.8 -20.1 35.2 -20.5 l0.8 -0.7 -13.9 -7.7 -13.8 -7.7 -24.9 14.1 c-13.7 7.8 -25.8 14.6 -26.9 15.1 l-2.1 0.9 -26.3 -15.1 -26.3 -15.1 -13.5 7.4 -13.5 7.3 0.2 0.9 c0.2 0.6 18.1 11.4 39.8 24.1 l39.5 23.1 5.6 -3.2 c3.1 -1.7 21.1 -12.1 40.1 -22.9z m254 2.5 c21.2 -12.2 38.8 -22.5 39.2 -22.9 l0.8 -0.8 -13.6 -7.7 -13.6 -7.7 -26.6 15 -26.6 15.1 -1.5 -0.6 c-0.9 -0.4 -12.9 -7.1 -26.8 -15.1 l-25.2 -14.5 -14.2 7.7 -14.1 7.7 1.3 0.8 c0.8 0.5 19 11.1 40.4 23.7 l39 22.9 1.5 -0.8 c0.8 -0.4 18.8 -10.7 40 -22.8z m-516.9 0.2 c21.9 -12.6 39.8 -23.1 39.9 -23.5 0 -0.4 -6 -4.1 -13.4 -8.2 l-13.5 -7.6 -26.5 15 c-14.6 8.2 -26.8 15 -27.2 15 -0.3 0 -12.4 -6.8 -26.8 -15 l-26.2 -15.1 -14.2 7.7 -14.3 7.7 4.8 2.8 c2.6 1.5 20.6 12 39.8 23.3 19.3 11.3 35.6 20.5 36.4 20.6 l1.4 0 39.8 -22.7z m-46.5 -116.9 l-0.4 -1.1 -38.8 -22.4 c-21.3 -12.3 -39.2 -22.6 -39.6 -22.7 l-0.8 -0.4 0.2 16.8 0.3 16.7 26 14.1 26 14.1 0.5 31.3 0.5 31.2 13 7.8 13 7.8 0.3 -46 c0.1 -25.4 0 -46.6 -0.2 -47.2z m-234.6 85 l13 -7.6 0.2 -31.1 0.3 -31.2 26 -14.1 26 -14.2 0.3 -16.7 0.2 -16.7 -0.9 0.4 c-0.5 0.1 -18.5 10.4 -40 22.8 l-39 22.5 -0.1 46.8 0 46.7 0.5 0 c0.3 0 6.4 -3.4 13.5 -7.6z m258.3 0.1 l12.7 -7.6 0.2 -31.1 0.3 -31.2 26.8 -14.4 26.7 -14.4 0 -16.4 0 -16.4 -0.7 0 c-0.4 0 -18.4 10.2 -40 22.7 l-39.3 22.7 0 46.8 c0 25.7 0.2 46.8 0.4 46.8 0.2 0 6 -3.4 12.9 -7.5z m234.7 -39.2 l0 -46.8 -39 -22.5 c-21.5 -12.4 -39.5 -22.7 -40 -22.8 l-1 -0.4 0.2 16.7 0.3 16.7 26.2 14.1 26.3 14.2 0 31.1 0 31 12.8 7.7 c7 4.2 13 7.6 13.5 7.6 l0.7 0.1 0 -46.7z m24 39 l13 -7.7 0 -31.1 0 -31 21.3 -11.4 c11.6 -6.3 23.6 -12.8 26.5 -14.4 l5.2 -2.9 0 -16.5 0 -16.5 -1 0.4 c-0.5 0.2 -18.5 10.4 -39.9 22.8 l-39.1 22.5 0 46.8 c0 25.7 0.2 46.7 0.5 46.7 0.2 0 6.3 -3.5 13.5 -7.7z m234 -39.2 l0 -46.9 -5.7 -3.2 c-3.2 -1.8 -20.5 -11.7 -38.4 -22.1 -17.9 -10.3 -33.3 -19.1 -34.2 -19.5 l-1.7 -0.6 0 16.5 0 16.5 26.8 14.4 26.7 14.5 0.3 31.1 0.2 31.2 12.8 7.5 c7 4.1 12.8 7.5 13 7.5 0.1 0 0.2 -21.1 0.2 -46.9z m24.2 39.3 l12.8 -7.6 0 -31.2 0.1 -31.1 26.2 -14 26.2 -14.1 0.3 -16.7 c0.1 -9.2 0.1 -16.7 -0.2 -16.7 -0.2 0 -18.1 10.2 -39.8 22.8 l-39.3 22.7 -0.3 46.8 -0.2 46.7 0.7 0 c0.4 0 6.4 -3.4 13.5 -7.6z m-627.9 -38.2 c19.9 -11.5 38.1 -21.9 40.5 -23.2 2.3 -1.3 4.2 -2.6 4.2 -2.9 0 -0.3 -5.9 -3.9 -13.1 -7.9 l-13 -7.4 -1.8 0.5 c-0.9 0.2 -13.2 6.9 -27.3 14.9 l-25.6 14.5 -26.5 -15.2 -26.4 -15.2 -14.1 7.6 c-7.7 4.2 -13.8 7.8 -13.5 8.1 0.5 0.5 79.6 46.9 80.1 47 0.2 0 16.6 -9.4 36.5 -20.8z m262.3 -2.4 c22.2 -12.7 40.4 -23.4 40.4 -23.7 0 -0.9 -26.2 -15.7 -27.2 -15.3 -0.4 0.1 -12.3 6.7 -26.3 14.7 -14.1 8 -26.1 14.5 -26.8 14.5 -0.8 0 -12.8 -6.6 -26.8 -14.6 -14 -8.1 -25.8 -14.7 -26.4 -14.7 -0.5 0.1 -7.2 3.4 -14.7 7.5 l-13.7 7.4 40.2 23.6 c22.1 13 40.4 23.7 40.6 23.7 0.2 0.1 18.5 -10.3 40.7 -23.1z m259.1 -0.3 l40.1 -23 -0.8 -0.8 c-0.4 -0.5 -6.5 -4.2 -13.6 -8.2 l-12.9 -7.4 -2 1.3 c-7.7 4.8 -50.6 28.6 -51.6 28.6 -0.7 0 -12.6 -6.5 -26.5 -14.5 -13.8 -8 -25.7 -14.5 -26.4 -14.5 -0.6 0 -7.2 3.2 -14.6 7.2 l-13.5 7.1 0.9 0.9 c1.4 1.4 79.7 46.8 80.3 46.5 0.3 -0.1 18.6 -10.5 40.6 -23.2z m239.2 11 l21.1 -12 0 -15.7 c0 -8.7 -0.2 -15.8 -0.5 -15.8 -0.2 0 -9.8 5.3 -21.2 11.8 -11.4 6.4 -21 11.6 -21.4 11.5 -0.8 -0.3 -44.4 -25.3 -49.4 -28.3 l-3 -1.8 -14.3 7.8 -14.3 7.8 40.3 23.5 c22.2 13 40.6 23.5 41 23.4 0.4 -0.1 10.2 -5.6 21.7 -12.2z m-774.9 -45 l8.5 -5.1 0.3 -31.1 0.2 -31.1 26.5 -14.4 26.5 -14.3 0 -16.8 0 -16.8 -4.2 2.5 c-2.4 1.4 -20.3 11.7 -39.8 23 l-35.5 20.5 -0.3 47.1 -0.2 47.2 4.7 -2.8 c2.7 -1.5 8.6 -5.1 13.3 -7.9z m230.3 -83.6 c-0.8 -0.7 -13.7 -8.2 -57.8 -33.6 -11 -6.4 -20.3 -11.7 -20.7 -12 l-0.8 -0.4 0 16.8 0 16.8 26.3 14.1 26.2 14.1 0.5 31.2 0.5 31.3 13 7.8 13 7.8 0.3 -46.6 0.2 -46.6 -0.7 -0.7z m36.7 47.5 l0 -31.2 18.3 -9.8 c10 -5.4 22 -11.9 26.7 -14.4 l8.5 -4.5 0.3 -16.7 c0.1 -9.3 0.1 -16.8 -0.2 -16.8 -0.2 0 -15.4 8.7 -33.7 19.3 -18.4 10.7 -36.2 20.9 -39.6 22.8 l-6.3 3.4 0 47.2 0 47.2 13 -7.7 12.9 -7.7 0.1 -31.1z m253.5 33.9 l5 -2.9 0.5 -31.3 0.5 -31.3 26.2 -14.1 26.2 -14.2 0.1 -16.8 0 -16.7 -5.7 3.2 c-3.2 1.8 -21.1 12.1 -39.8 22.9 l-34 19.7 -0.3 47.1 -0.2 47.1 8.2 -4.9 c4.6 -2.7 10.6 -6.2 13.3 -7.8z m227.5 -34.2 l0 -46.8 -37.7 -21.9 c-20.8 -11.9 -38.8 -22.4 -40 -23.2 l-2.3 -1.4 0 16.9 0 16.9 26.5 14.3 26.5 14.3 0 31.1 0.1 31.2 13.2 7.7 c7.2 4.3 13.3 7.8 13.5 7.8 0.1 0 0.2 -21.1 0.2 -46.9z m27.7 36.1 l8.3 -4.7 0 -31.2 0 -31.2 6 -3.2 6 -3.2 0 -15.9 0 -15.9 -2.2 1.2 c-1.3 0.7 -10.1 5.7 -19.6 11.2 l-17.3 9.9 0.1 47 0.1 46.9 5.2 -3.1 c2.9 -1.7 8.9 -5.2 13.4 -7.8z m-803 -36.9 l0.3 -46.1 -37.8 -21.7 c-20.7 -12 -38.7 -22.5 -39.9 -23.3 l-2.3 -1.4 0 16.9 0 16.9 26.5 14.3 26.5 14.3 0 31.1 0.1 31.2 12.2 7.2 12.2 7.2 1 -0.3 1 -0.3 0.2 -46z m516.1 0 l-0.3 -46.8 -39.4 -22.7 c-21.7 -12.6 -39.6 -22.8 -39.8 -22.8 -0.2 0 -0.2 7.5 -0.1 16.7 l0.3 16.7 25.2 13.7 c13.9 7.5 26 14.2 26.8 14.9 l1.5 1.2 0 30.7 0 30.6 12.3 7.2 c6.7 4 12.5 7.3 13 7.3 l0.7 0 -0.2 -46.7z m-599 -3.8 c22.1 -12.6 40.2 -23.2 40.1 -23.5 0 -0.3 -6.1 -3.9 -13.6 -8.1 l-13.6 -7.6 -26.4 15 -26.4 14.9 -1.7 -0.4 c-0.9 -0.3 -13 -7 -26.9 -15 l-25.1 -14.5 -14.1 7.6 -14 7.6 0.7 0.7 c1.4 1.4 79.7 46.8 80.3 46.5 0.3 -0.1 18.7 -10.5 40.7 -23.2z m245.2 7.5 c14.6 -8.4 32.5 -18.6 39.8 -22.8 7.2 -4.2 13.2 -7.9 13.2 -8.2 0 -0.3 -6.1 -3.9 -13.5 -8.1 l-13.4 -7.6 -26.3 15 c-14.5 8.2 -26.7 15 -27.3 15 -0.5 0 -12.5 -6.7 -26.5 -14.8 -14 -8.1 -25.9 -14.7 -26.5 -14.8 -0.5 0 -7.2 3.4 -14.8 7.5 l-13.8 7.5 40.3 23.6 40.3 23.6 1 -0.3 c0.6 -0.2 13 -7.2 27.5 -15.6z m271.3 -7.4 l40.9 -23.4 -2.4 -1.5 c-7.3 -4.5 -24.4 -14 -25.3 -14 -0.5 0 -12.9 6.8 -27.4 15 l-26.3 15 -25.9 -14.8 c-14.2 -8.2 -26.4 -14.9 -27 -14.9 -0.6 0 -7.2 3.2 -14.6 7.1 l-13.5 7.1 1 1 c1 1 78.2 46.5 79.2 46.7 0.3 0.1 18.9 -10.4 41.3 -23.3z m258.6 -0.1 c22 -12.6 40.1 -23.2 40.1 -23.5 0 -0.3 -6.2 -3.9 -13.6 -8.1 l-13.6 -7.6 -26.9 15.2 -26.8 15.3 -8.3 -4.8 c-4.6 -2.6 -16.5 -9.5 -26.4 -15.3 l-18.2 -10.4 -14.1 7.6 -14 7.6 0.7 0.7 c1.5 1.4 79.7 46.8 80.3 46.5 0.4 -0.1 18.7 -10.5 40.8 -23.2z m-795.4 -33.2 l10 -5.9 0.3 -31.1 0.2 -31.2 26.5 -14.3 26.4 -14.3 0.1 -16.8 0 -16.8 -0.7 0.4 c-2 1.2 -37.2 21.5 -56.8 32.8 l-22 12.7 -0.3 47.2 -0.2 47.2 3.2 -2 c1.8 -1.1 7.8 -4.6 13.3 -7.9z m232.5 -37.2 l0 -46.9 -21.2 -12.3 c-11.7 -6.8 -28.3 -16.3 -36.8 -21.2 -8.5 -4.9 -17 -9.8 -18.7 -10.9 l-3.3 -2 0 16.9 0 16.8 26.3 14.2 26.2 14.1 0.5 31.3 0.5 31.3 13 7.8 c7.2 4.3 13.1 7.8 13.3 7.8 0.1 0 0.2 -21.1 0.2 -46.9z m256.3 -47.9 c-1.5 -1.1 -49 -28.6 -72.5 -42.1 l-5.8 -3.2 0 16.8 0.1 16.8 26.2 14.1 26.2 14 0.5 31.3 0.5 31.3 13 7.7 13 7.7 0.3 -46.5 0.3 -46.6 -1.8 -1.3z m27.4 85.4 l11.3 -6.7 0.2 -31.1 0.3 -31.1 26.2 -14.1 26.2 -14.1 0.1 -16.8 0 -16.7 -3.7 1.9 c-2.1 1.1 -20 11.4 -39.8 22.9 l-36 20.8 -0.3 47.3 -0.2 47.2 2.2 -1.4 c1.3 -0.8 7.4 -4.4 13.5 -8.1z m258.8 -0.3 l10 -5.9 0.3 -31.1 0.2 -31.2 26.5 -14.3 26.5 -14.3 0 -16.8 0 -16.9 -3.2 2 c-1.8 1.1 -19.8 11.5 -40 23.2 l-36.8 21.2 0 47 0 47 3.3 -2 c1.7 -1.1 7.7 -4.6 13.2 -7.9z m-518.9 1.5 l12.4 -7.3 0 -31.1 0 -31.1 26.8 -14.5 26.7 -14.5 0.3 -16.7 0.2 -16.8 -0.8 0.4 c-0.5 0.1 -18.5 10.4 -40 22.8 l-39.1 22.5 -0.1 46.8 0 46.7 0.6 0 c0.3 0 6.2 -3.3 13 -7.2z m492.4 -39.5 l-0.1 -46.8 -39.1 -22.5 c-21.5 -12.4 -39.5 -22.7 -40 -22.8 l-0.8 -0.4 0.2 16.8 0.3 16.8 26.8 14.4 26.7 14.4 0 31.2 0 31.1 12.3 7.2 c6.7 4 12.5 7.2 13 7.2 l0.7 0.1 0 -46.7z m-599.8 -1 c21.1 -12.1 39.1 -22.4 40 -22.9 l1.7 -0.9 -14.1 -7.9 -14.1 -7.9 -1.6 1 c-0.9 0.5 -12.9 7.3 -26.7 15.1 l-25.2 14.2 -26.2 -15 c-14.3 -8.2 -26.4 -15 -26.7 -15 -0.3 0 -6.6 3.2 -13.9 7.2 l-13.4 7.2 0.3 0.9 c0.1 0.5 17.8 11.1 39.2 23.7 l39 22.9 1.7 -0.4 c1 -0.1 19 -10.2 40 -22.2z m256.5 1.1 c20.8 -11.9 39 -22.4 40.6 -23.3 l2.7 -1.7 -13.7 -7.8 -13.7 -7.7 -2.1 0.9 c-1.1 0.5 -13.2 7.3 -26.9 15.1 l-25 14.2 -26.2 -15.1 c-14.4 -8.2 -26.5 -15 -26.9 -15 -1.1 0 -27.5 14.4 -27.5 15 0 0.7 79.1 47 80.2 47 0.4 0 17.8 -9.7 38.5 -21.6z m259.8 -0.9 c21.5 -12.3 39.6 -22.8 40.4 -23.2 l1.4 -0.9 -13.5 -7.7 c-7.5 -4.2 -13.9 -7.7 -14.2 -7.7 -0.3 0 -12.6 6.8 -27.1 15 l-26.6 15.1 -20.7 -12 c-11.4 -6.5 -23.4 -13.3 -26.7 -15.1 l-6 -3.2 -13.7 7.4 c-7.6 4 -13.8 7.5 -13.8 7.8 0 0.7 79.3 46.9 80.5 46.9 0.6 0.1 18.6 -10 40 -22.4z m240.9 10 l20.6 -11.7 0 -16 0 -16 -3.2 1.9 c-1.8 1.1 -11.5 6.5 -21.5 12.2 l-18.1 10.2 -26 -15.1 c-14.4 -8.2 -26.4 -15 -26.7 -15 -0.4 0 -6.7 3.2 -14.1 7.2 l-13.5 7.1 0.3 0.9 c0.2 0.4 17.9 11.1 39.3 23.7 l39 23 1.7 -0.4 c0.9 -0.1 10.9 -5.6 22.2 -12z m-802.5 -82.5 l-0.1 -45.5 -39 -22.5 c-21.4 -12.4 -39.4 -22.7 -39.9 -22.8 l-0.9 -0.4 0.2 16.7 0.3 16.6 26.2 14.2 26.3 14.2 0 31.1 0 31 12.8 7.6 12.7 7.6 0.7 -1.2 0.8 -1.1 -0.1 -45.5z m23.1 40.3 l13 -7.7 0 -31.1 0 -31 26.5 -14.3 26.5 -14.4 0 -16.4 0 -16.4 -0.6 0 c-0.4 0 -18.4 10.2 -40 22.8 l-39.4 22.7 0 46.8 c0 25.7 0.2 46.7 0.5 46.7 0.2 0 6.3 -3.5 13.5 -7.7z m235 -39.2 l0 -46.9 -6.7 -3.8 c-3.8 -2 -10.8 -6.1 -15.8 -9 -4.9 -2.9 -19.9 -11.5 -33.2 -19.2 l-24.3 -14 0 16.8 0 16.8 26.5 14.3 26.5 14.2 0 31.1 0.1 31.1 12.7 7.7 c7 4.2 13 7.7 13.5 7.7 l0.7 0.1 0 -46.9z m26.2 37.4 l9.8 -5.7 0.2 -31.2 0.3 -31.1 26.7 -14.5 26.8 -14.5 0 -16.8 0 -16.8 -4.2 2.5 c-2.4 1.4 -20.3 11.7 -39.8 23 l-35.5 20.5 -0.3 47.1 -0.2 47.2 3.2 -2 c1.8 -1.1 7.7 -4.5 13 -7.7z m231.8 -37.4 l0 -46.9 -37.7 -21.8 c-20.8 -12 -38.8 -22.4 -40 -23.2 l-2.3 -1.4 0 16.9 0 16.9 25.8 13.8 c14.1 7.6 26.3 14.3 27 14.9 l1.2 0.9 0 30.8 0 30.8 12.8 7.6 c7 4.2 12.8 7.6 13 7.6 0.1 0 0.2 -21.1 0.2 -46.9z m27.7 36.9 l9.3 -5.5 0 -31.1 0 -31.1 17.3 -9.3 c9.4 -5.1 21.4 -11.5 26.5 -14.2 l9.2 -5 0 -16.8 0 -16.9 -14.7 8.6 c-8.2 4.7 -26.2 15.1 -40 23.1 l-25.3 14.6 0 46.9 0 46.9 4.3 -2.4 c2.3 -1.3 8.4 -4.9 13.4 -7.8z m231.3 -36.7 l0 -46.8 -39.4 -22.8 c-21.7 -12.5 -39.7 -22.7 -40.1 -22.7 l-0.5 0 0.2 16.6 0.3 16.5 26.2 14.2 26.3 14.2 0 31 0 31.1 12.8 7.6 c7 4.2 13 7.7 13.5 7.7 l0.7 0.1 0 -46.7z m23 39 l13 -7.6 0 -31.1 0 -31.1 6 -3.3 6 -3.3 0 -15.9 0 -15.9 -19.5 11.2 -19.4 11.2 -0.1 46.8 0 46.7 0.6 0 c0.2 0 6.3 -3.5 13.4 -7.7z m-917.5 -22.6 c2.2 -1.3 20 -11.5 39.5 -22.7 19.5 -11.1 35.9 -20.6 36.3 -21 l0.9 -0.8 -13.4 -7.6 c-7.4 -4.2 -13.7 -7.6 -14.1 -7.6 -0.3 0 -12.6 6.8 -27.1 15.1 l-26.5 15 -26.3 -15.2 -26.3 -15.2 -9.1 4.7 c-5 2.6 -11.4 6.1 -14.3 7.8 l-5.4 3 11.9 6.9 c6.6 3.8 24.5 14.3 39.9 23.4 15.4 9 28.5 16.4 29 16.4 0.6 0.1 2.8 -1 5 -2.2z m294.6 -20.8 c22.2 -12.7 40.5 -23.2 40.6 -23.3 0.2 -0.2 -25 -14.7 -26.9 -15.4 l-0.9 -0.4 -21.7 12.3 c-11.9 6.7 -24 13.5 -26.8 15.1 l-5.2 2.8 -25.3 -14.6 c-14 -8.1 -25.9 -14.8 -26.6 -15.1 l-1.2 -0.5 -13.5 7.4 -13.6 7.3 0.3 0.8 c0.2 0.8 78.6 46.7 79.8 46.7 0.3 0 18.8 -10.4 41 -23.1z m256.7 0.9 c21.3 -12.2 39.5 -22.7 40.5 -23.3 l1.8 -1.2 -13.6 -7.7 c-7.5 -4.2 -13.8 -7.6 -14.1 -7.6 -0.3 0 -12.5 6.8 -27.1 15 l-26.4 15.1 -26.6 -15.2 -26.5 -15.2 -8.2 4.4 c-4.4 2.4 -10.7 5.7 -13.8 7.4 -3.2 1.6 -5.8 3.2 -5.8 3.5 0 0.3 7.1 4.7 15.8 9.7 8.6 5 26.5 15.5 39.7 23.2 13.2 7.7 24.4 14.1 24.8 14.1 0.4 0 18.2 -10 39.5 -22.2z m259.9 -0.8 c21.3 -12.2 39.2 -22.6 39.6 -23 l0.9 -0.8 -13.7 -7.8 -13.7 -7.7 -2.6 1.5 c-1.5 0.9 -13.6 7.7 -26.9 15.2 l-24.2 13.7 -26.3 -15.2 -26.3 -15.2 -12.2 6.4 c-6.8 3.5 -13.2 7.1 -14.2 7.9 l-2 1.5 39.7 23.2 39.7 23.2 1.7 -0.3 c0.9 -0.2 19.1 -10.4 40.5 -22.6z m-797.4 -32 l12.7 -7.4 0 -31.1 0 -31.1 26.5 -14.3 26.5 -14.3 0 -16.4 0 -16.4 -0.7 0 c-0.3 0 -18.3 10.2 -40 22.7 l-39.3 22.8 0 46.8 0 46.9 0.8 -0.4 c0.4 -0.1 6.5 -3.7 13.5 -7.8z m234.7 -38.8 l0 -46.7 -26.7 -15.4 c-14.8 -8.5 -32 -18.5 -38.4 -22.2 -6.3 -3.8 -12.3 -7.1 -13.2 -7.5 l-1.7 -0.6 0 16.5 0 16.5 26.5 14.3 26.5 14.4 0 31 0 31 12.8 7.7 c7 4.2 13 7.7 13.5 7.7 l0.7 0.1 0 -46.8z m25.3 37.8 l10.7 -6.2 0 -31.2 0 -31.1 27 -14.5 27 -14.5 0 -16.8 0 -16.8 -1.7 1 c-1 0.5 -18.9 10.8 -39.8 22.9 l-38 22 -0.3 47.2 -0.2 47.2 2.2 -1.4 c1.3 -0.8 7.1 -4.3 13.1 -7.8z m232.7 -37.9 l0 -46.8 -18.2 -10.5 c-10.1 -5.8 -28.1 -16.2 -40 -23.1 l-21.8 -12.6 0 16.8 0 16.7 26.5 14.3 26.5 14.3 0 31.2 0 31.1 13.3 7.7 c7.2 4.3 13.3 7.8 13.5 7.8 0.1 0 0.2 -21.1 0.2 -46.9z m28.7 36.1 l8.3 -4.7 0 -31.1 0 -31.2 26.5 -14.3 26.5 -14.3 0 -16.8 0 -16.7 -18.2 10.5 c-10.1 5.8 -28.1 16.2 -40 23.1 l-21.8 12.5 0 47 0 47 5.3 -3.1 c2.8 -1.7 8.9 -5.3 13.4 -7.9z m229.3 -36.1 l0 -46.9 -16.7 -9.8 c-9.3 -5.3 -25.6 -14.8 -36.3 -20.9 -10.7 -6.2 -21.2 -12.2 -23.2 -13.5 l-3.8 -2.2 0 16.9 0 16.8 27 14.5 27 14.5 0 31.1 0 31.1 12.8 7.6 c7 4.2 12.8 7.6 13 7.6 0.1 0.1 0.2 -21 0.2 -46.8z m24.3 38.9 l12.7 -7.5 0 -31 0 -31 20.3 -10.9 c11.1 -6.1 23 -12.5 26.5 -14.4 l6.2 -3.4 0 -16.4 0 -16.4 -0.6 0 c-0.3 0 -18.3 10.2 -40 22.7 l-39.4 22.8 0 46.8 0 46.9 0.8 -0.4 c0.5 -0.1 6.6 -3.7 13.5 -7.8z m-624.8 -40 c21.5 -12.2 39.6 -22.8 40.3 -23.4 l1.2 -1.2 -13.5 -7.7 -13.6 -7.6 -26.6 15 -26.7 15.1 -2.4 -1.1 c-1.3 -0.6 -13.3 -7.4 -26.6 -15.1 l-24.2 -14 -14.3 7.6 c-7.8 4.2 -14.1 7.8 -13.9 7.9 0.2 0.2 10.7 6.4 23.3 13.8 12.7 7.4 30.7 17.9 40 23.4 9.4 5.5 17.2 9.9 17.5 9.8 0.3 -0.1 18.1 -10.2 39.5 -22.5z m298.8 -23.2 l1.9 -1 -14 -7.9 -14 -7.9 -24.8 14.1 c-13.7 7.8 -25.9 14.6 -27.1 15.1 l-2.1 1 -24.9 -14.2 c-13.6 -7.9 -25.4 -14.7 -26 -15.2 l-1.3 -1 -14.4 7.8 -14.5 7.9 1.7 0.9 c0.9 0.5 19.2 11.2 40.5 23.7 l38.9 22.7 39.1 -22.5 c21.6 -12.4 40 -22.9 41 -23.5z m222.2 20.8 c18.7 -10.7 34.8 -20 35.8 -20.8 l1.7 -1.3 -13.6 -7.8 -13.7 -7.7 -26 14.7 c-14.3 8.2 -26.6 14.9 -27.2 15.1 l-1.2 0.3 -26.2 -15.1 -26.1 -15.1 -13.3 7.2 c-7.2 3.9 -13.6 7.5 -14 7.9 l-0.8 0.7 27.2 15.9 c15 8.8 33.2 19.3 40.4 23.5 l13 7.6 5 -2.8 c2.8 -1.5 20.3 -11.6 39 -22.3z m242 9.3 l15 -8.7 0.3 -15.7 0.3 -15.7 -1.7 0.6 c-0.9 0.4 -10.4 5.6 -21.1 11.7 l-19.5 11.1 -1.4 -0.6 c-0.9 -0.3 -12.9 -7.1 -26.8 -15.1 l-25.2 -14.5 -14.3 7.7 -14.3 7.6 2.3 1.4 c1.3 0.8 19.5 11.5 40.4 23.7 l38 22.3 6.5 -3.5 c3.6 -2 13.3 -7.5 21.5 -12.3z m-807.6 -76.4 l0 -45.5 -25.2 0 -25.2 0 11.5 6.4 11.5 6.3 0.3 31.1 0.2 31.2 1.8 1 c5.2 3.2 24.7 14.9 24.9 14.9 0.1 0.1 0.2 -20.4 0.2 -45.4z m35.9 -1.4 l0.2 -31 4.3 -2.4 c2.3 -1.4 7.6 -4.3 11.7 -6.5 l7.5 -4.2 -25.2 0 -25.3 0 0 45.4 0 45.5 13.3 -7.9 13.2 -7.8 0.3 -31.1z m738.9 -43.8 c-0.2 -0.2 -11.5 -0.2 -25 -0.1 l-24.7 0.3 11.3 6.1 11.2 6 0.5 31.3 0.5 31.3 13 7.7 13 7.7 0.3 -44.9 c0.1 -24.8 0.1 -45.2 -0.1 -45.4z m-516.7 44.7 l0 -45 -25.2 0 -25.3 0.1 11.7 6.2 11.8 6.2 0 31.1 0 31.2 12.8 7.6 c7 4.1 13 7.5 13.5 7.6 l0.7 0 0 -45z m23.2 37.7 l12.3 -7.3 0.3 -31.1 0.2 -31.2 9.8 -5.2 c5.3 -2.9 10.6 -5.8 11.7 -6.6 l1.9 -1.3 -24.7 0 -24.7 0 0 45 c0 24.8 0.2 45 0.4 45 0.3 0 6 -3.3 12.8 -7.3z m234.8 -37.7 l0 -45 -24.7 0 -24.8 0 3 1.9 c1.7 1 6.9 3.9 11.7 6.5 l8.8 4.7 0.2 31.2 0.3 31.1 12 7.2 c6.6 4 12.3 7.3 12.8 7.3 l0.7 0.1 0 -45z m24 37.4 l13 -7.6 0 -31.2 0 -31.1 11.8 -6.2 11.7 -6.2 -25.2 -0.1 -25.3 0 0 45 0 45 0.5 0 c0.3 0 6.4 -3.4 13.5 -7.6z m259.2 -0.5 l11.8 -7 0.2 -31.1 0.3 -31.1 5.7 -3.1 5.8 -3.1 0 -3.2 0 -3.3 -19.5 0 -19.4 0 -0.1 45.1 0 45.1 1.7 -0.6 c1 -0.4 7.1 -3.9 13.5 -7.7z m-891.7 -37.4 c17.1 -9.8 35.2 -20.2 40.3 -23.2 l9.4 -5.5 -1.9 -1.3 c-1 -0.6 -6.5 -3.8 -12.3 -7 -5.8 -3.1 -11.1 -6.2 -11.7 -6.7 l-1.2 -1 -26.7 15.1 c-14.6 8.3 -26.9 15.1 -27.3 15.1 -0.4 0 -12.5 -6.8 -27 -15.1 l-26.2 -15 -3.2 1.9 c-1.8 1.1 -7.7 4.3 -13.2 7.2 -5.5 2.9 -10.3 5.6 -10.8 5.9 l-0.7 0.7 24.7 14.5 c13.6 7.9 31.7 18.5 40.2 23.5 8.6 5 15.8 9 16.1 8.9 0.3 -0.1 14.5 -8.2 31.5 -18z m515 1 c13.2 -7.6 30.2 -17.4 37.8 -21.8 l13.9 -7.9 -13.8 -7.9 -13.8 -7.8 -2 1.1 c-1.2 0.6 -12.3 6.9 -24.8 14 -12.5 7 -23.8 13.3 -25.1 13.9 l-2.4 1.1 -26.3 -15.1 -26.2 -15.1 -13.2 7.1 c-7.2 3.9 -13.5 7.5 -13.9 7.9 l-0.9 0.8 13.9 8 c7.6 4.4 25.7 15 40.3 23.6 l26.5 15.5 3 -1.8 c1.6 -1 13.8 -8.1 27 -15.6z m268 -5.5 c21.5 -12.3 39.6 -22.8 40.2 -23.4 l1.3 -1.2 -13.6 -7.7 -13.6 -7.7 -23.6 13.4 c-13.1 7.4 -25.1 14.2 -26.8 15.2 l-3.2 1.8 -26.5 -15.2 -26.6 -15.2 -14.1 7.7 -14.2 7.6 3.8 2.4 c2.2 1.3 7.1 4.2 10.9 6.4 3.9 2.2 20.3 11.8 36.5 21.3 16.2 9.5 29.7 17.2 30 17.1 0.3 -0.1 18.1 -10.2 39.5 -22.5z m-515.4 -0.7 c21.9 -12.6 39.9 -23.1 39.9 -23.5 0 -0.3 -6.1 -4 -13.5 -8.2 l-13.5 -7.6 -26.4 15 c-14.5 8.2 -26.7 15 -27.2 15 -0.4 0 -12.5 -6.7 -26.9 -15 l-26.1 -15 -14.2 7.7 -14.3 7.7 1.3 0.7 c0.7 0.4 18.6 10.9 39.8 23.3 21.2 12.4 39.1 22.6 39.9 22.6 l1.4 0 39.8 -22.7z m-270.6 -38.1 l2 -1.1 -13.2 -0.1 -13.3 0 0 8 0 7.9 11.3 -6.7 c6.1 -3.8 12.1 -7.4 13.2 -8z m224.2 -0.9 c-0.2 -0.2 -6.1 -0.2 -13 -0.1 l-12.7 0.3 12.8 7.5 12.7 7.6 0.3 -7.4 c0.2 -4.1 0.1 -7.6 -0.1 -7.9z m552.2 0.1 c0.2 -0.2 -5.5 -0.4 -12.7 -0.4 l-13.2 0 0 7.9 0 8 12.8 -7.6 c7 -4.1 12.9 -7.7 13.1 -7.9z m-810.9 7.1 l0 -7.5 -12.7 0 -12.6 0 0.5 0.5 c0.9 0.9 23.3 14.3 24.1 14.4 l0.7 0.1 0 -7.5z m280.6 1 c6 -3.5 11.6 -6.8 12.4 -7.4 l1.5 -1 -12.7 0 -12.8 -0.1 0 7.5 c0 4.1 0.2 7.5 0.3 7.5 0.2 0 5.3 -2.9 11.3 -6.5z m236.4 -1 l0 -7.5 -13.2 0 -13.2 0 12.4 7.4 c6.9 4.1 12.8 7.5 13.3 7.5 l0.7 0.1 0 -7.5z m24.5 -0.4 l12 -7.1 -13.2 0 -13.3 0 0 7.6 0 7.6 1.3 -0.5 c0.6 -0.3 6.6 -3.7 13.2 -7.6z m233.5 0.4 l0 -7.5 -12.7 0 -12.6 0 0.5 0.5 c0.9 0.9 23.3 14.3 24.1 14.4 l0.7 0.1 0 -7.5z"/>
 </g>
</svg>